<mxfile host="Electron" agent="Mozilla/5.0 (Windows NT 10.0; Win64; x64) AppleWebKit/537.36 (KHTML, like Gecko) draw.io/26.0.4 Chrome/128.0.6613.186 Electron/32.2.5 Safari/537.36" version="26.0.4">
  <diagram id="C5RBs43oDa-KdzZeNtuy" name="Page-1">
    <mxGraphModel dx="2245" dy="820" grid="1" gridSize="10" guides="1" tooltips="1" connect="1" arrows="1" fold="1" page="1" pageScale="1" pageWidth="827" pageHeight="1169" math="0" shadow="0">
      <root>
        <mxCell id="WIyWlLk6GJQsqaUBKTNV-0" />
        <mxCell id="WIyWlLk6GJQsqaUBKTNV-1" parent="WIyWlLk6GJQsqaUBKTNV-0" />
        <mxCell id="_XZ-yqLG_1qy4rxKxE4k-2" value="" style="ellipse;html=1;shape=startState;fillColor=#000000;strokeColor=#ff0000;" vertex="1" parent="WIyWlLk6GJQsqaUBKTNV-1">
          <mxGeometry x="395" y="40" width="30" height="30" as="geometry" />
        </mxCell>
        <mxCell id="_XZ-yqLG_1qy4rxKxE4k-3" value="" style="edgeStyle=orthogonalEdgeStyle;html=1;verticalAlign=bottom;endArrow=open;endSize=8;strokeColor=#ff0000;rounded=0;entryX=0.5;entryY=0;entryDx=0;entryDy=0;" edge="1" source="_XZ-yqLG_1qy4rxKxE4k-2" parent="WIyWlLk6GJQsqaUBKTNV-1" target="_XZ-yqLG_1qy4rxKxE4k-4">
          <mxGeometry relative="1" as="geometry">
            <mxPoint x="410" y="130" as="targetPoint" />
          </mxGeometry>
        </mxCell>
        <mxCell id="_XZ-yqLG_1qy4rxKxE4k-4" value="Condition" style="rhombus;whiteSpace=wrap;html=1;fontColor=#000000;fillColor=#ffffc0;strokeColor=#ff0000;" vertex="1" parent="WIyWlLk6GJQsqaUBKTNV-1">
          <mxGeometry x="370" y="110" width="80" height="40" as="geometry" />
        </mxCell>
        <mxCell id="_XZ-yqLG_1qy4rxKxE4k-5" value="no" style="edgeStyle=orthogonalEdgeStyle;html=1;align=left;verticalAlign=bottom;endArrow=open;endSize=8;strokeColor=#ff0000;rounded=0;entryX=0;entryY=0.5;entryDx=0;entryDy=0;" edge="1" source="_XZ-yqLG_1qy4rxKxE4k-4" parent="WIyWlLk6GJQsqaUBKTNV-1" target="_XZ-yqLG_1qy4rxKxE4k-9">
          <mxGeometry x="-1" relative="1" as="geometry">
            <mxPoint x="580" y="130" as="targetPoint" />
            <Array as="points" />
          </mxGeometry>
        </mxCell>
        <mxCell id="_XZ-yqLG_1qy4rxKxE4k-6" value="yes" style="edgeStyle=orthogonalEdgeStyle;html=1;align=left;verticalAlign=top;endArrow=open;endSize=8;strokeColor=#ff0000;rounded=0;entryX=0.5;entryY=0;entryDx=0;entryDy=0;" edge="1" source="_XZ-yqLG_1qy4rxKxE4k-4" parent="WIyWlLk6GJQsqaUBKTNV-1" target="_XZ-yqLG_1qy4rxKxE4k-11">
          <mxGeometry x="-1" relative="1" as="geometry">
            <mxPoint x="410" y="230" as="targetPoint" />
          </mxGeometry>
        </mxCell>
        <mxCell id="_XZ-yqLG_1qy4rxKxE4k-9" value="create account" style="rounded=1;whiteSpace=wrap;html=1;arcSize=40;fontColor=#000000;fillColor=#ffffc0;strokeColor=#ff0000;" vertex="1" parent="WIyWlLk6GJQsqaUBKTNV-1">
          <mxGeometry x="580" y="110" width="120" height="40" as="geometry" />
        </mxCell>
        <mxCell id="_XZ-yqLG_1qy4rxKxE4k-10" value="" style="edgeStyle=orthogonalEdgeStyle;html=1;verticalAlign=bottom;endArrow=open;endSize=8;strokeColor=#ff0000;rounded=0;entryX=1;entryY=0.5;entryDx=0;entryDy=0;" edge="1" source="_XZ-yqLG_1qy4rxKxE4k-9" parent="WIyWlLk6GJQsqaUBKTNV-1" target="_XZ-yqLG_1qy4rxKxE4k-11">
          <mxGeometry relative="1" as="geometry">
            <mxPoint x="640" y="210" as="targetPoint" />
            <Array as="points">
              <mxPoint x="640" y="270" />
            </Array>
          </mxGeometry>
        </mxCell>
        <mxCell id="_XZ-yqLG_1qy4rxKxE4k-15" style="edgeStyle=orthogonalEdgeStyle;rounded=0;orthogonalLoop=1;jettySize=auto;html=1;fillColor=#a20025;strokeColor=light-dark(#6F0000, #ff0000);exitX=1;exitY=0.5;exitDx=0;exitDy=0;" edge="1" parent="WIyWlLk6GJQsqaUBKTNV-1" source="_XZ-yqLG_1qy4rxKxE4k-43" target="_XZ-yqLG_1qy4rxKxE4k-12">
          <mxGeometry relative="1" as="geometry">
            <mxPoint x="490" y="420" as="sourcePoint" />
            <Array as="points">
              <mxPoint x="700" y="350" />
            </Array>
          </mxGeometry>
        </mxCell>
        <mxCell id="_XZ-yqLG_1qy4rxKxE4k-22" style="edgeStyle=orthogonalEdgeStyle;rounded=0;orthogonalLoop=1;jettySize=auto;html=1;entryX=0.5;entryY=0;entryDx=0;entryDy=0;strokeColor=#F00000;exitX=0;exitY=0.5;exitDx=0;exitDy=0;" edge="1" parent="WIyWlLk6GJQsqaUBKTNV-1" source="_XZ-yqLG_1qy4rxKxE4k-43" target="_XZ-yqLG_1qy4rxKxE4k-19">
          <mxGeometry relative="1" as="geometry">
            <mxPoint x="300" y="250" as="sourcePoint" />
          </mxGeometry>
        </mxCell>
        <mxCell id="_XZ-yqLG_1qy4rxKxE4k-30" style="edgeStyle=orthogonalEdgeStyle;rounded=0;orthogonalLoop=1;jettySize=auto;html=1;strokeColor=#CC0000;exitX=0.5;exitY=1;exitDx=0;exitDy=0;" edge="1" parent="WIyWlLk6GJQsqaUBKTNV-1" source="_XZ-yqLG_1qy4rxKxE4k-43" target="_XZ-yqLG_1qy4rxKxE4k-27">
          <mxGeometry relative="1" as="geometry">
            <mxPoint x="400" y="420" as="sourcePoint" />
            <Array as="points">
              <mxPoint x="410" y="420" />
              <mxPoint x="-50" y="420" />
            </Array>
          </mxGeometry>
        </mxCell>
        <mxCell id="_XZ-yqLG_1qy4rxKxE4k-37" style="edgeStyle=orthogonalEdgeStyle;rounded=0;orthogonalLoop=1;jettySize=auto;html=1;entryX=0.5;entryY=0;entryDx=0;entryDy=0;strokeColor=#CC0000;exitX=0;exitY=0.5;exitDx=0;exitDy=0;" edge="1" parent="WIyWlLk6GJQsqaUBKTNV-1" source="_XZ-yqLG_1qy4rxKxE4k-43" target="_XZ-yqLG_1qy4rxKxE4k-40">
          <mxGeometry relative="1" as="geometry">
            <mxPoint x="280" y="330" as="sourcePoint" />
            <mxPoint x="130" y="340" as="targetPoint" />
          </mxGeometry>
        </mxCell>
        <mxCell id="_XZ-yqLG_1qy4rxKxE4k-42" value="" style="edgeStyle=orthogonalEdgeStyle;rounded=0;orthogonalLoop=1;jettySize=auto;html=1;entryX=0.5;entryY=0;entryDx=0;entryDy=0;strokeColor=#CC0000;" edge="1" parent="WIyWlLk6GJQsqaUBKTNV-1" source="_XZ-yqLG_1qy4rxKxE4k-11" target="_XZ-yqLG_1qy4rxKxE4k-43">
          <mxGeometry relative="1" as="geometry">
            <mxPoint x="410" y="320" as="targetPoint" />
          </mxGeometry>
        </mxCell>
        <mxCell id="_XZ-yqLG_1qy4rxKxE4k-11" value="login" style="rounded=1;whiteSpace=wrap;html=1;arcSize=40;fontColor=#000000;fillColor=#ffffc0;strokeColor=#ff0000;" vertex="1" parent="WIyWlLk6GJQsqaUBKTNV-1">
          <mxGeometry x="350" y="250" width="120" height="40" as="geometry" />
        </mxCell>
        <mxCell id="_XZ-yqLG_1qy4rxKxE4k-12" value="Condition" style="rhombus;whiteSpace=wrap;html=1;fontColor=#000000;fillColor=#ffffc0;strokeColor=#ff0000;" vertex="1" parent="WIyWlLk6GJQsqaUBKTNV-1">
          <mxGeometry x="770" y="330" width="80" height="40" as="geometry" />
        </mxCell>
        <mxCell id="_XZ-yqLG_1qy4rxKxE4k-13" value="no" style="edgeStyle=orthogonalEdgeStyle;html=1;align=left;verticalAlign=bottom;endArrow=open;endSize=8;strokeColor=#ff0000;rounded=0;entryX=0;entryY=0.5;entryDx=0;entryDy=0;entryPerimeter=0;" edge="1" source="_XZ-yqLG_1qy4rxKxE4k-12" parent="WIyWlLk6GJQsqaUBKTNV-1" target="_XZ-yqLG_1qy4rxKxE4k-16">
          <mxGeometry x="-1" relative="1" as="geometry">
            <mxPoint x="950" y="350" as="targetPoint" />
          </mxGeometry>
        </mxCell>
        <mxCell id="_XZ-yqLG_1qy4rxKxE4k-14" value="yes" style="edgeStyle=orthogonalEdgeStyle;html=1;align=left;verticalAlign=top;endArrow=open;endSize=8;strokeColor=#ff0000;rounded=0;" edge="1" source="_XZ-yqLG_1qy4rxKxE4k-12" parent="WIyWlLk6GJQsqaUBKTNV-1" target="_XZ-yqLG_1qy4rxKxE4k-18">
          <mxGeometry x="-1" relative="1" as="geometry">
            <mxPoint x="810" y="430" as="targetPoint" />
          </mxGeometry>
        </mxCell>
        <mxCell id="_XZ-yqLG_1qy4rxKxE4k-16" value="add donor" style="rounded=1;whiteSpace=wrap;html=1;arcSize=40;fontColor=#000000;fillColor=#ffffc0;strokeColor=#ff0000;" vertex="1" parent="WIyWlLk6GJQsqaUBKTNV-1">
          <mxGeometry x="980" y="330" width="120" height="40" as="geometry" />
        </mxCell>
        <mxCell id="_XZ-yqLG_1qy4rxKxE4k-17" value="" style="edgeStyle=orthogonalEdgeStyle;html=1;verticalAlign=bottom;endArrow=open;endSize=8;strokeColor=#ff0000;rounded=0;entryX=1;entryY=0.5;entryDx=0;entryDy=0;" edge="1" source="_XZ-yqLG_1qy4rxKxE4k-16" parent="WIyWlLk6GJQsqaUBKTNV-1" target="_XZ-yqLG_1qy4rxKxE4k-18">
          <mxGeometry relative="1" as="geometry">
            <mxPoint x="1010" y="430" as="targetPoint" />
            <Array as="points">
              <mxPoint x="1040" y="460" />
            </Array>
          </mxGeometry>
        </mxCell>
        <mxCell id="_XZ-yqLG_1qy4rxKxE4k-18" value="manage donor" style="rounded=1;whiteSpace=wrap;html=1;arcSize=40;fontColor=#000000;fillColor=#ffffc0;strokeColor=#ff0000;" vertex="1" parent="WIyWlLk6GJQsqaUBKTNV-1">
          <mxGeometry x="750" y="440" width="120" height="40" as="geometry" />
        </mxCell>
        <mxCell id="_XZ-yqLG_1qy4rxKxE4k-19" value="Condition" style="rhombus;whiteSpace=wrap;html=1;fontColor=#000000;fillColor=#ffffc0;strokeColor=#ff0000;" vertex="1" parent="WIyWlLk6GJQsqaUBKTNV-1">
          <mxGeometry x="50" y="110" width="80" height="40" as="geometry" />
        </mxCell>
        <mxCell id="_XZ-yqLG_1qy4rxKxE4k-20" value="no" style="edgeStyle=orthogonalEdgeStyle;html=1;align=left;verticalAlign=bottom;endArrow=open;endSize=8;strokeColor=#ff0000;rounded=0;entryX=1;entryY=0.5;entryDx=0;entryDy=0;" edge="1" source="_XZ-yqLG_1qy4rxKxE4k-19" parent="WIyWlLk6GJQsqaUBKTNV-1" target="_XZ-yqLG_1qy4rxKxE4k-24">
          <mxGeometry x="-1" relative="1" as="geometry">
            <mxPoint x="-30" y="130" as="targetPoint" />
          </mxGeometry>
        </mxCell>
        <mxCell id="_XZ-yqLG_1qy4rxKxE4k-21" value="yes" style="edgeStyle=orthogonalEdgeStyle;html=1;align=left;verticalAlign=top;endArrow=open;endSize=8;strokeColor=#ff0000;rounded=0;" edge="1" source="_XZ-yqLG_1qy4rxKxE4k-19" parent="WIyWlLk6GJQsqaUBKTNV-1" target="_XZ-yqLG_1qy4rxKxE4k-23">
          <mxGeometry x="-1" relative="1" as="geometry">
            <mxPoint x="90" y="210" as="targetPoint" />
          </mxGeometry>
        </mxCell>
        <mxCell id="_XZ-yqLG_1qy4rxKxE4k-23" value="manage events" style="rounded=1;whiteSpace=wrap;html=1;arcSize=40;fontColor=#000000;fillColor=#ffffc0;strokeColor=#ff0000;" vertex="1" parent="WIyWlLk6GJQsqaUBKTNV-1">
          <mxGeometry x="30" y="220" width="120" height="40" as="geometry" />
        </mxCell>
        <mxCell id="_XZ-yqLG_1qy4rxKxE4k-24" value="create event" style="rounded=1;whiteSpace=wrap;html=1;arcSize=40;fontColor=#000000;fillColor=#ffffc0;strokeColor=#ff0000;" vertex="1" parent="WIyWlLk6GJQsqaUBKTNV-1">
          <mxGeometry x="-160" y="110" width="120" height="40" as="geometry" />
        </mxCell>
        <mxCell id="_XZ-yqLG_1qy4rxKxE4k-25" value="" style="edgeStyle=orthogonalEdgeStyle;html=1;verticalAlign=bottom;endArrow=open;endSize=8;strokeColor=#ff0000;rounded=0;entryX=0;entryY=0.5;entryDx=0;entryDy=0;" edge="1" source="_XZ-yqLG_1qy4rxKxE4k-24" parent="WIyWlLk6GJQsqaUBKTNV-1" target="_XZ-yqLG_1qy4rxKxE4k-23">
          <mxGeometry relative="1" as="geometry">
            <mxPoint x="-100" y="210" as="targetPoint" />
            <Array as="points">
              <mxPoint x="-110" y="240" />
            </Array>
          </mxGeometry>
        </mxCell>
        <mxCell id="_XZ-yqLG_1qy4rxKxE4k-27" value="Condition" style="rhombus;whiteSpace=wrap;html=1;fontColor=#000000;fillColor=#ffffc0;strokeColor=#ff0000;" vertex="1" parent="WIyWlLk6GJQsqaUBKTNV-1">
          <mxGeometry x="-90" y="510" width="80" height="40" as="geometry" />
        </mxCell>
        <mxCell id="_XZ-yqLG_1qy4rxKxE4k-28" value="no" style="edgeStyle=orthogonalEdgeStyle;html=1;align=left;verticalAlign=bottom;endArrow=open;endSize=8;strokeColor=#ff0000;rounded=0;entryX=0;entryY=0.5;entryDx=0;entryDy=0;" edge="1" source="_XZ-yqLG_1qy4rxKxE4k-27" parent="WIyWlLk6GJQsqaUBKTNV-1" target="_XZ-yqLG_1qy4rxKxE4k-31">
          <mxGeometry x="-1" relative="1" as="geometry">
            <mxPoint x="96" y="530" as="targetPoint" />
          </mxGeometry>
        </mxCell>
        <mxCell id="_XZ-yqLG_1qy4rxKxE4k-29" value="yes" style="edgeStyle=orthogonalEdgeStyle;html=1;align=left;verticalAlign=top;endArrow=open;endSize=8;strokeColor=#ff0000;rounded=0;entryX=0.5;entryY=0;entryDx=0;entryDy=0;" edge="1" source="_XZ-yqLG_1qy4rxKxE4k-27" parent="WIyWlLk6GJQsqaUBKTNV-1" target="_XZ-yqLG_1qy4rxKxE4k-33">
          <mxGeometry x="-1" relative="1" as="geometry">
            <mxPoint x="-50" y="610" as="targetPoint" />
          </mxGeometry>
        </mxCell>
        <mxCell id="_XZ-yqLG_1qy4rxKxE4k-31" value="add a staff" style="rounded=1;whiteSpace=wrap;html=1;arcSize=40;fontColor=#000000;fillColor=#ffffc0;strokeColor=#ff0000;" vertex="1" parent="WIyWlLk6GJQsqaUBKTNV-1">
          <mxGeometry x="101" y="510" width="120" height="40" as="geometry" />
        </mxCell>
        <mxCell id="_XZ-yqLG_1qy4rxKxE4k-32" value="" style="edgeStyle=orthogonalEdgeStyle;html=1;verticalAlign=bottom;endArrow=open;endSize=8;strokeColor=#ff0000;rounded=0;entryX=1;entryY=0.5;entryDx=0;entryDy=0;" edge="1" source="_XZ-yqLG_1qy4rxKxE4k-31" parent="WIyWlLk6GJQsqaUBKTNV-1" target="_XZ-yqLG_1qy4rxKxE4k-33">
          <mxGeometry relative="1" as="geometry">
            <mxPoint x="161" y="610" as="targetPoint" />
            <Array as="points">
              <mxPoint x="161" y="630" />
            </Array>
          </mxGeometry>
        </mxCell>
        <mxCell id="_XZ-yqLG_1qy4rxKxE4k-33" value="manage staff" style="rounded=1;whiteSpace=wrap;html=1;arcSize=40;fontColor=#000000;fillColor=#ffffc0;strokeColor=#ff0000;" vertex="1" parent="WIyWlLk6GJQsqaUBKTNV-1">
          <mxGeometry x="-110" y="610" width="120" height="40" as="geometry" />
        </mxCell>
        <mxCell id="_XZ-yqLG_1qy4rxKxE4k-40" value="manage donations" style="rounded=1;whiteSpace=wrap;html=1;arcSize=40;fontColor=#000000;fillColor=#ffffc0;strokeColor=#ff0000;" vertex="1" parent="WIyWlLk6GJQsqaUBKTNV-1">
          <mxGeometry x="-190" y="380" width="120" height="40" as="geometry" />
        </mxCell>
        <mxCell id="_XZ-yqLG_1qy4rxKxE4k-44" style="edgeStyle=orthogonalEdgeStyle;rounded=0;orthogonalLoop=1;jettySize=auto;html=1;strokeColor=#CC0000;entryX=0.5;entryY=0;entryDx=0;entryDy=0;" edge="1" parent="WIyWlLk6GJQsqaUBKTNV-1" source="_XZ-yqLG_1qy4rxKxE4k-43" target="_XZ-yqLG_1qy4rxKxE4k-46">
          <mxGeometry relative="1" as="geometry">
            <mxPoint x="410" y="560" as="targetPoint" />
          </mxGeometry>
        </mxCell>
        <mxCell id="_XZ-yqLG_1qy4rxKxE4k-43" value="dashbord" style="rounded=1;whiteSpace=wrap;html=1;arcSize=40;fontColor=#000000;fillColor=#ffffc0;strokeColor=#ff0000;" vertex="1" parent="WIyWlLk6GJQsqaUBKTNV-1">
          <mxGeometry x="350" y="330" width="120" height="40" as="geometry" />
        </mxCell>
        <mxCell id="_XZ-yqLG_1qy4rxKxE4k-45" value="" style="ellipse;html=1;shape=endState;fillColor=#000000;strokeColor=#ff0000;" vertex="1" parent="WIyWlLk6GJQsqaUBKTNV-1">
          <mxGeometry x="395" y="670" width="30" height="30" as="geometry" />
        </mxCell>
        <mxCell id="_XZ-yqLG_1qy4rxKxE4k-46" value="Condition" style="rhombus;whiteSpace=wrap;html=1;fontColor=#000000;fillColor=#ffffc0;strokeColor=#ff0000;" vertex="1" parent="WIyWlLk6GJQsqaUBKTNV-1">
          <mxGeometry x="370" y="560" width="80" height="40" as="geometry" />
        </mxCell>
        <mxCell id="_XZ-yqLG_1qy4rxKxE4k-47" value="yes" style="edgeStyle=orthogonalEdgeStyle;html=1;align=left;verticalAlign=bottom;endArrow=open;endSize=8;strokeColor=#ff0000;rounded=0;entryX=1;entryY=0.75;entryDx=0;entryDy=0;" edge="1" source="_XZ-yqLG_1qy4rxKxE4k-46" parent="WIyWlLk6GJQsqaUBKTNV-1" target="_XZ-yqLG_1qy4rxKxE4k-43">
          <mxGeometry x="-1" relative="1" as="geometry">
            <mxPoint x="550" y="580" as="targetPoint" />
            <Array as="points">
              <mxPoint x="500" y="580" />
              <mxPoint x="500" y="370" />
              <mxPoint x="470" y="370" />
            </Array>
          </mxGeometry>
        </mxCell>
        <mxCell id="_XZ-yqLG_1qy4rxKxE4k-48" value="no" style="edgeStyle=orthogonalEdgeStyle;html=1;align=left;verticalAlign=top;endArrow=open;endSize=8;strokeColor=#ff0000;rounded=0;entryX=0.5;entryY=0;entryDx=0;entryDy=0;" edge="1" source="_XZ-yqLG_1qy4rxKxE4k-46" parent="WIyWlLk6GJQsqaUBKTNV-1" target="_XZ-yqLG_1qy4rxKxE4k-45">
          <mxGeometry x="-1" relative="1" as="geometry">
            <mxPoint x="410" y="660" as="targetPoint" />
          </mxGeometry>
        </mxCell>
      </root>
    </mxGraphModel>
  </diagram>
</mxfile>
